<?xml version="1.0" encoding="utf-8"?>
<!-- Generator: Adobe Illustrator 21.1.0, SVG Export Plug-In . SVG Version: 6.00 Build 0)  -->
<svg version="1.1" id="Layer_1" xmlns="http://www.w3.org/2000/svg" xmlns:xlink="http://www.w3.org/1999/xlink" x="0px" y="0px"
	 viewBox="0 0 474.8 421.3" style="enable-background:new 0 0 474.8 421.3;" xml:space="preserve">
<style type="text/css">
	.st0{fill:#000100;}
	.st1{fill:#F04941;}
	.st2{fill:#FDB137;}
	.st3{fill:#FCB190;}
	.st4{fill:#1E0E00;}
	.st5{fill:#80C351;}
</style>
<g>
	<g>
		<g>
			<path class="st0" d="M306.2,239.9c1.9-5.2,2.7-11,2.3-17.3c-0.4-6.1-1.9-12.8-4.5-19.8c-4.4-11.7-10.3-20.3-10.5-20.7L292,180
				l-6.9,2l-0.2-0.5h-96.7l-5.3-1.5l-1.5,2.2c-0.3,0.4-6.2,9-10.5,20.7c-2.6,7-4.1,13.6-4.5,19.8c-0.4,6.7,0.5,12.8,2.7,18.2
				c-1.2,4-3.2,11.6-4.3,20.8c-1,8-1.2,15.6-0.6,22.6c0.8,8.9,2.8,16.8,6.2,23.6c6,12.3,16.2,20.8,30.1,25.4l0.6,0.2h74.1l0.7-0.3
				c12.6-5.5,22-14,27.9-25.3c4.7-9,7.3-19.7,7.6-31.8C311.6,259.6,307.8,245.2,306.2,239.9z M288.8,188.5
				c3.6,5.8,12.6,22,12.5,37.6l-13.7-37.2L288.8,188.5z M188.9,201.2c0.3,0.6,0.6,1.1,1,1.7c6,9.6,20.7,14.6,43.8,15.1v43.8
				c-16-0.3-29.1-2.5-38.8-6.5c-8.6-3.6-14.7-8.6-18.1-15c0-0.1,0-0.1,0-0.1l0-0.1L188.9,201.2z M207.4,206.8
				c-5.4-1.9-9.2-4.5-11.2-7.7c-2.7-4.2-1.7-8.4-1.1-10.2h84.7l0.2,0.5c0.6,2,1.1,5.9-1.2,9.7c-2,3.2-5.8,5.8-11.2,7.7
				c-7.3,2.6-17.4,3.9-30.1,3.9C224.8,210.7,214.7,209.4,207.4,206.8z M241.1,218.1c23.1-0.5,37.8-5.5,43.8-15.1l13.4,36.6
				c-0.1,0.2-0.2,0.5-0.4,0.7c-3.4,6.4-9.4,11.5-18.1,15.1c-9.7,4-22.8,6.2-38.8,6.5V218.1z M184.1,191.7L173.5,226
				C173.5,212.8,180,199,184.1,191.7z M303.7,276c-0.7,23.7-10.4,40.3-28.8,49.3c-2.7-7.8-10.1-13.4-18.8-13.4
				c-8.8,0-16.2,5.7-18.8,13.5c-2.6-7.9-10.1-13.5-18.8-13.5c-8.7,0-16.1,5.6-18.8,13.4c-10.5-4.1-18.3-11-23-20.6
				c-6.7-13.6-6.4-30.3-4.9-41.9c0.6-5,1.5-9.4,2.4-13.1c10.8,13,31.9,19.6,63.1,19.6c31.6,0,53-6.8,63.6-20.1
				C302.5,255.8,304,265.6,303.7,276z"/>
			<g>
				<path class="st1" d="M176.8,240.3c-9.7-18.4,4.5-44.2,9.1-51.8l1.4,0.4c-0.7,3.5-0.8,8.8,2.4,14c6,9.6,20.7,14.6,43.8,15.1v43.8
					c-16-0.3-29.1-2.5-38.8-6.5C186.3,251.8,180.2,246.7,176.8,240.3z M298,240.3c-3.4,6.4-9.4,11.5-18.1,15.1
					c-9.7,4-22.8,6.2-38.8,6.5v-43.8c23.1-0.5,37.8-5.6,43.8-15.1c3.3-5.2,3.1-10.5,2.4-14l1.4-0.4
					C293.5,196.2,307.6,221.8,298,240.3z"/>
			</g>
			<path class="st1" d="M207.4,206.8c-5.4-1.9-9.2-4.5-11.2-7.7c-2.7-4.2-1.7-8.4-1.1-10.2h84.7l0.2,0.5c0.6,2,1.1,5.9-1.2,9.7
				c-2,3.2-5.8,5.8-11.2,7.7c-7.3,2.6-17.4,3.9-30.1,3.9C224.8,210.7,214.7,209.4,207.4,206.8z"/>
			<path class="st1" d="M303.7,276c-0.7,23.7-10.4,40.3-28.8,49.3c-2.7-7.8-10.1-13.4-18.8-13.4c-8.8,0-16.2,5.7-18.8,13.5
				c-2.6-7.9-10.1-13.5-18.8-13.5c-8.7,0-16.1,5.6-18.8,13.4c-10.5-4.1-18.3-11-23-20.6c-6.7-13.6-6.4-30.3-4.9-41.9
				c0.6-5,1.5-9.4,2.4-13.1c10.8,13,31.9,19.6,63.1,19.6c31.6,0,53-6.8,63.6-20.1C302.5,255.8,304,265.6,303.7,276z"/>
		</g>
		<g>
			<g>
				<g>
					<path class="st2" d="M140.2,90.1c-0.8,0-1.6-0.3-2.3-0.8L78.3,42.8c-0.6-0.5-1.1-1.2-1.3-2c-0.2-0.6-1.6-6.4,1.8-10.8
						c1.5-1.9,4.5-4.2,10.1-4.2c0.2,0,0.4,0,0.6,0c1,0,1.9,0.4,2.5,1.1l50.8,52.2c0.7,0.7,1,1.6,1,2.6v4.7c0,1.4-0.8,2.7-2.1,3.3
						C141.3,89.9,140.8,90.1,140.2,90.1z"/>
				</g>
				<g>
					<path class="st0" d="M88.9,29.4c0.2,0,0.3,0,0.5,0l50.8,52.2v4.7L80.6,39.9C80.6,39.9,77.8,29.4,88.9,29.4 M88.9,22L88.9,22
						c-7.2,0-11,3.1-13,5.7c-4.4,5.7-2.8,12.7-2.5,14c0.4,1.6,1.3,2.9,2.6,3.9l59.6,46.5c1.3,1,2.9,1.6,4.5,1.6
						c1.1,0,2.2-0.2,3.2-0.7c2.5-1.2,4.1-3.8,4.1-6.6v-4.7c0-1.9-0.7-3.8-2.1-5.1L94.7,24.3c-1.3-1.4-3.2-2.2-5.1-2.2
						C89.4,22,89.2,22,88.9,22L88.9,22z"/>
				</g>
				<g>
					<path class="st2" d="M140.7,83.3c-1.3,0-2.5-0.7-3.2-1.8L99.6,16.7c-0.5-0.8-0.6-1.8-0.4-2.7C100.7,7.5,105,3.7,111,3.7
						c3.1,0,5.6,1,5.8,1.2c0.9,0.4,1.6,1.1,1.9,2l27.1,65.1c0.3,0.8,0.4,1.6,0.1,2.4l-1.7,6.2c-0.4,1.4-1.6,2.5-3.1,2.7
						C141,83.3,140.9,83.3,140.7,83.3z"/>
				</g>
				<path class="st0" d="M359.1,75.4c-7.5,0-14.5,1.8-20.7,5c-3.5-15-9.6-27.6-18.4-37.7c-8.3-9.6-19.1-17-32-22
					c-14.2-5.6-31.4-8.4-51.1-8.4c-35.7,0-62.8,10.2-80.4,30.4c-4.7,5.4-8.5,11.3-11.6,17.4L122.2,5.4c-0.7-1.8-2.1-3.2-3.9-3.9
					C117.8,1.2,114.8,0,111,0c-3.4,0-6.5,1-9.1,2.9c-3.1,2.3-5.2,5.8-6.3,10.3c-0.4,1.8-0.1,3.8,0.8,5.4l34.9,59.6
					c-4.9-1.8-10.1-2.8-15.6-2.8c-24.8,0-44.9,20.1-44.9,44.9c0,24.8,20.1,44.9,44.9,44.9c7.7,0,14.9-1.9,21.2-5.3
					c2.6,7.6,8.6,14.1,18,19.4c8.6,4.9,20.2,8.8,34.4,11.7c23.8,4.8,46.6,4.9,47.6,4.9c0,0,0,0,0,0c1,0,23.7-0.1,47.5-4.9
					c14.2-2.9,25.7-6.8,34.4-11.7c9.6-5.4,15.7-12.1,18.3-19.9c6.5,3.7,14,5.8,22,5.8c24.8,0,44.9-20.1,44.9-44.9
					C404,95.4,383.9,75.4,359.1,75.4z M111,7.4c2.4,0,4.4,0.9,4.4,0.9l25.4,61.2c-0.8,2.2-1.5,4.3-2.2,6.5l-35.8-61.1
					C104.2,8.7,108,7.4,111,7.4z"/>
			</g>
			<path class="st3" d="M143,153l0.1,0.7c2.4,17.3,27.3,25.9,47.8,30c22.9,4.6,45.5,4.8,46.1,4.8c0.7,0,23.3-0.2,46.1-4.8
				c20.4-4.1,45.3-12.7,47.8-30l0.1-1c1.7-12.2,4.4-30.9,3.1-50.6c-12.3,3.1-37.2,6.1-37.2,6.1l-6-13.6l-2.2,14.6
				c-20.6,3.2-43.3,3.2-43.3,3.2l-8.2-25.9l-8.2,25.9c0,0-22.8,0-43.3-3.2l-2.2-14.6l-6,13.6c0,0-24-2.8-36.3-5.8
				C139,123.8,141.7,143.5,143,153z"/>
			<g>
				<g>
					<path class="st0" d="M303,141.2c-2.3,0-4.2-1.9-4.2-4.2c0-3.6-2.9-6.5-6.5-6.5c-3.6,0-6.5,2.9-6.5,6.5c0,2.3-1.9,4.2-4.2,4.2
						c-2.3,0-4.2-1.9-4.2-4.2c0-8.3,6.7-15,15-15c8.2,0,15,6.7,15,15C307.2,139.3,305.3,141.2,303,141.2z"/>
				</g>
				<g>
					<path class="st0" d="M193.3,141.2c-2.3,0-4.2-1.9-4.2-4.2c0-3.6-2.9-6.5-6.5-6.5c-3.6,0-6.5,2.9-6.5,6.5c0,2.3-1.9,4.2-4.2,4.2
						c-2.3,0-4.2-1.9-4.2-4.2c0-8.3,6.7-15,15-15c8.2,0,15,6.7,15,15C197.5,139.3,195.6,141.2,193.3,141.2z"/>
				</g>
			</g>
			<g>
				<path class="st0" d="M237.4,172.4c-10.5,0-15.9-5.3-18.5-9.8c-2.7-4.6-3-9.2-3.1-9.7c-0.1-1.2,0.3-2.3,1.1-3.1
					c0.8-0.8,1.9-1.3,3.1-1.3h34.7c1.2,0,2.3,0.5,3.1,1.3c0.8,0.8,1.2,2,1.1,3.1c0,0.5-0.4,5-3.1,9.7
					C253.3,167.1,247.9,172.4,237.4,172.4z M225.4,156.9c0.2,0.5,0.5,1.1,0.8,1.6c2.3,3.7,5.9,5.4,11.1,5.4c5.2,0,8.8-1.8,11.1-5.4
					c0.3-0.5,0.6-1.1,0.8-1.6H225.4z"/>
				<path class="st1" d="M225.4,156.9c0.2,0.5,0.5,1.1,0.8,1.6c2.3,3.7,5.9,5.4,11.1,5.4c5.2,0,8.8-1.8,11.1-5.4
					c0.3-0.5,0.6-1.1,0.8-1.6H225.4z"/>
			</g>
		</g>
	</g>
	<g>
		<polygon class="st4" points="44.1,320 38.5,335.7 50.6,335.7 45.1,320 		"/>
		<path class="st4" d="M120.2,314.8H110v11.5h10.1c4.6,0,7.1-2.6,7.1-5.8C127.3,317.4,124.7,314.8,120.2,314.8z"/>
		<polygon class="st4" points="298.8,320 293.2,335.7 305.4,335.7 299.8,320 		"/>
		<path class="st4" d="M432.8,312.7c-6.1,0-11.2,5.2-11.2,13.6v14.7c0,8.4,5.1,13.6,11.2,13.6c6.1,0,11.2-5.2,11.2-13.6v-14.7
			C443.9,317.9,438.8,312.7,432.8,312.7z M435.9,340.9c0,2.7-1,5.3-3.1,5.3c-2.2,0-3.1-2.7-3.1-5.3v-14.7c0-2.7,1-5.3,3.1-5.3
			c2.2,0,3.1,2.7,3.1,5.3V340.9z"/>
		<g>
			<path class="st4" d="M463,297.8c-3.8-3.6-8.3-6.4-13.4-8.3c-5.1-1.9-10.8-2.9-16.8-2.9c-6,0-11.7,1-16.8,2.9
				c-5.1,1.9-9.6,4.7-13.4,8.3c0,0-0.1,0.1-0.1,0.1c-0.8-1.5-1.9-2.9-3.1-4.1c-3.5-3.3-8.2-5.1-13.7-5.1h-44.7
				c-5.5,0-10.3,1.8-13.7,5.1c-1.9,1.9-3.4,4.2-4.3,6.8c-1.9-3.8-4.3-6.8-7.2-9c-4.4-3.4-9.7-5-16.4-5c-6.7,0-12,1.6-16.4,5
				c-3.8,2.9-6.6,7-8.9,12.8l0,0.1l0,0.1l-8.7,23.5c-0.8-2-1.9-3.7-3.3-5.2c-0.1-0.1-0.1-0.1-0.2-0.2c0.6-0.9,1.1-1.9,1.5-2.9
				c0.8-2.1,1.3-4.5,1.3-7c0-3.4-1.1-7-3.1-10.3c-1.8-3-4.4-5.7-7.5-8.1c-3.2-2.4-7-4.3-11.1-5.6c-4.4-1.4-9.2-2.1-14.2-2.1
				c-6,0-11.7,1-16.8,2.9c-5.1,1.9-9.6,4.7-13.4,8.3c-2.5,2.4-4.7,5.1-6.4,8.1c-0.1-5.2-2-9.9-5.5-13.2c-3.5-3.3-8.2-5.1-13.7-5.1
				c-5.5,0-10.3,1.8-13.7,5.1c-2.8,2.7-4.6,6.4-5.2,10.6c-1.5-2.4-3.4-4.5-5.6-6.3c-6.6-5.5-16.1-8.3-28.3-8.3H98.9
				c-5.5,0-10.3,1.8-13.7,5.1c-3.5,3.4-5.5,8.2-5.5,13.6v23.7l-9.9-26.7l0,0l0,0c-2.1-5.7-5-9.9-8.9-12.9c-4.4-3.4-9.7-5-16.4-5
				c-6.7,0-12,1.6-16.4,5c-3.8,2.9-6.6,7-8.9,12.8l0,0.1l0,0.1L3.1,348.4c-0.2,0.5-0.8,2-1.4,4c-1.1,3.5-1.7,6.3-1.7,8.5
				c0,5.1,2,9.9,5.6,13.4c3.5,3.4,8.4,5.3,13.5,5.3c4.6,0,8.9-1.7,12.5-4.9c2.9-2.6,5.3-6.2,7.1-10.6l0.5-1.2h10.6l0.5,1.2
				c1.8,4.4,4.2,8,7.1,10.6c3.6,3.2,7.9,4.9,12.5,4.9c5.2,0,10-1.9,13.5-5.3c0.3-0.3,0.5-0.5,0.7-0.8c0.3,0.3,0.6,0.7,0.9,1
				c3.5,3.3,8.2,5.1,13.7,5.1c5.5,0,10.3-1.8,13.7-5.1c3.5-3.4,5.5-8.2,5.5-13.6v-0.5l7.9,10.7l0.1,0.1l0.1,0.1c0.3,0.3,1.7,2.2,4,4
				c3.6,2.8,7.5,4.3,11.4,4.3c7.4,0,11.9-2.7,14.4-4.9c0.6-0.6,1.2-1.2,1.8-1.9c0.5,0.6,1,1.2,1.5,1.7c3.5,3.3,8.2,5.1,13.7,5.1
				c5.5,0,10.2-1.8,13.7-5.1c3.4-3.3,5.3-8,5.5-13.2c1.7,3,3.9,5.7,6.4,8.1c3.8,3.6,8.3,6.4,13.4,8.3c5.2,1.9,10.8,2.9,16.8,2.9
				c5.2,0,10.2-0.7,14.8-2.1c4.3-1.3,8.2-3.1,11.6-5.5c0.9-0.6,1.8-1.3,2.6-1.9c0.7,1.1,1.6,2.2,2.6,3.1c3.5,3.4,8.4,5.3,13.5,5.3
				c4.6,0,8.9-1.7,12.5-4.9c2.9-2.6,5.3-6.2,7.1-10.6l0.5-1.2h10.6l0.5,1.2c1.8,4.4,4.2,8,7.1,10.6c3.6,3.2,7.9,4.9,12.5,4.9
				c5.2,0,10-1.9,13.5-5.3c3.6-3.5,5.6-8.3,5.6-13.4c0-2.3-0.5-5-1.7-8.5c-0.6-1.9-1.2-3.5-1.4-4l-8.9-24.1c2.7,1.3,5.7,1.9,9,1.9
				h3.1v34.7c0,5.4,1.9,10.2,5.5,13.6c3.5,3.3,8.2,5.1,13.7,5.1c5.5,0,10.3-1.8,13.7-5.1c3.5-3.4,5.5-8.2,5.5-13.6v-34.7h3.1
				c1.8,0,3.6-0.2,5.2-0.6c0,0.2,0,0.5,0,0.7v14.7c0,11.1,4.2,21.2,11.8,28.5c3.8,3.6,8.3,6.4,13.4,8.3c5.2,1.9,10.8,2.9,16.8,2.9
				c6,0,11.7-1,16.8-2.9c5.1-1.9,9.6-4.7,13.4-8.3c7.6-7.2,11.8-17.3,11.8-28.5v-14.7C474.8,315.2,470.6,305.1,463,297.8z
				 M69.9,371.3c-5.6,0-9.6-4.2-12.2-10.5l-2.5-6.3H33.9l-2.5,6.3c-2.5,6.3-6.6,10.5-12.2,10.5c-6.6,0-11.2-4.7-11.2-10.5
				c0-3.1,2.5-9.4,2.5-9.4l16.2-44c3-7.9,7.6-12.6,17.8-12.6c10.2,0,14.8,4.7,17.8,12.6l16.2,44c0,0,0.5,1.3,1.1,3.1v6.4
				c0,1.5,0.2,3,0.5,4.4C78.5,368.8,74.7,371.3,69.9,371.3z M141.5,371.3c-5.1,0-9.1-5.2-9.1-5.2l-16.2-22H110v16.8
				c0,6.3-4.1,10.5-11.2,10.5c-5.2,0-8.7-2.2-10.3-5.9c0.4-1.5,0.6-3,0.6-4.6c0-2.1-0.5-4.5-1.4-7.7v-45.7c0-6.3,4.1-10.5,11.2-10.5
				h21.3c21.3,0,30.4,9.4,30.4,23.6c0,13.1-11.2,17.3-11.2,17.3v1l10.1,12.6c0,0,4.1,5.2,4.1,9.4
				C153.7,367.1,149.6,371.3,141.5,371.3z M184.1,360.8c0,6.3-4.1,10.5-11.2,10.5c-7.1,0-11.2-4.2-11.2-10.5v-54.4
				c0-6.3,4.1-10.5,11.2-10.5c7.1,0,11.2,4.2,11.2,10.5V360.8z M228.8,372.3c-20.8,0-34-13.6-34-31.4v-14.7
				c0-17.8,13.2-31.4,34-31.4c17.8,0,27.9,10.5,27.9,17.8c0,5.8-3.6,9.4-11.2,9.4c-8.1,0-9.1-7.3-16.7-7.3
				c-6.6,0-11.2,4.7-11.2,11.5v14.7c0,6.8,4.6,11.5,11.2,11.5c5.6,0,9.6-3.1,9.6-3.1v-4.2h-3c-6.1,0-10.2-4.2-10.2-9.4
				c0-5.2,4.1-9.4,10.2-9.4h14.2c6.1,0,9.1,3.1,9.1,9.4V346l-0.9,2.3c-0.2,0.5-0.8,2-1.4,4c-1.1,3.5-1.7,6.3-1.7,8.5
				c0,0.6,0,1.3,0.1,1.9C250.1,367.9,241,372.3,228.8,372.3z M335.8,360.8c0,5.8-4.6,10.5-11.2,10.5c-5.6,0-9.6-4.2-12.2-10.5
				l-2.5-6.3h-21.3l-2.5,6.3c-2.5,6.3-6.6,10.5-12.2,10.5c-5,0-8.9-2.7-10.4-6.6c2.1-3.3,3.2-6.8,3.2-10.2v-7l14.8-40.1
				c3-7.9,7.6-12.6,17.8-12.6c10.1,0,14.8,4.7,17.8,12.6l16.2,44C333.3,351.4,335.8,357.7,335.8,360.8z M385.6,317.9h-11.2v42.9
				c0,6.3-4.1,10.5-11.2,10.5c-7.1,0-11.2-4.2-11.2-10.5v-42.9h-11.2c-7.1,0-11.2-4.2-11.2-10.5c0-6.3,4.1-10.5,11.2-10.5h44.7
				c6.2,0,10.1,3.2,11,8.2c-2.1,3.4-3.7,7.2-4.7,11.2C390.2,317.4,388.1,317.9,385.6,317.9z M466.8,340.9c0,17.8-13.2,31.4-34,31.4
				c-20.8,0-34-13.6-34-31.4v-14.7c0-1.7,0.1-3.4,0.4-5.1c0,0,0.1-0.1,0.2-0.1c3.5-3.4,5.4-8.2,5.5-13.6c5.8-7.8,15.5-12.7,28-12.7
				c20.8,0,34,13.6,34,31.4V340.9z"/>
			<g>
				<path class="st5" d="M31.4,360.8c-2.5,6.3-6.6,10.5-12.2,10.5c-6.6,0-11.2-4.7-11.2-10.5c0-3.1,2.5-9.4,2.5-9.4l16.2-44
					c3-7.9,7.6-12.6,17.8-12.6c10.2,0,14.8,4.7,17.8,12.6l16.2,44c0,0,2.5,6.3,2.5,9.4c0,5.8-4.6,10.5-11.2,10.5
					c-5.6,0-9.6-4.2-12.2-10.5l-2.5-6.3H33.9L31.4,360.8z M50.6,335.7L45.1,320h-1l-5.6,15.7H50.6z"/>
				<path class="st5" d="M110,344.1v16.8c0,6.3-4.1,10.5-11.2,10.5c-7.1,0-11.2-4.2-11.2-10.5v-53.4c0-6.3,4.1-10.5,11.2-10.5h21.3
					c21.3,0,30.4,9.4,30.4,23.6c0,13.1-11.2,17.3-11.2,17.3v1l10.1,12.6c0,0,4.1,5.2,4.1,9.4c0,6.3-4.1,10.5-12.2,10.5
					c-5.1,0-9.1-5.2-9.1-5.2l-16.2-22H110z M120.2,326.3c4.6,0,7.1-2.6,7.1-5.8c0-3.1-2.5-5.8-7.1-5.8H110v11.5H120.2z"/>
				<path class="st5" d="M184.1,360.8c0,6.3-4.1,10.5-11.2,10.5c-7.1,0-11.2-4.2-11.2-10.5v-54.4c0-6.3,4.1-10.5,11.2-10.5
					c7.1,0,11.2,4.2,11.2,10.5V360.8z"/>
				<path class="st5" d="M194.8,326.3c0-17.8,13.2-31.4,34-31.4c17.8,0,27.9,10.5,27.9,17.8c0,5.8-3.6,9.4-11.2,9.4
					c-8.1,0-9.1-7.3-16.7-7.3c-6.6,0-11.2,4.7-11.2,11.5v14.7c0,6.8,4.6,11.5,11.2,11.5c5.6,0,9.6-3.1,9.6-3.1v-4.2h-3
					c-6.1,0-10.2-4.2-10.2-9.4c0-5.2,4.1-9.4,10.2-9.4h14.2c6.1,0,9.1,3.1,9.1,9.4v18.8c0,7.3-11.2,17.8-29.9,17.8
					c-20.8,0-34-13.6-34-31.4V326.3z"/>
				<path class="st5" d="M286.1,360.8c-2.5,6.3-6.6,10.5-12.2,10.5c-6.6,0-11.2-4.7-11.2-10.5c0-3.1,2.5-9.4,2.5-9.4l16.2-44
					c3-7.9,7.6-12.6,17.8-12.6c10.1,0,14.8,4.7,17.8,12.6l16.2,44c0,0,2.5,6.3,2.5,9.4c0,5.8-4.6,10.5-11.2,10.5
					c-5.6,0-9.6-4.2-12.2-10.5l-2.5-6.3h-21.3L286.1,360.8z M305.4,335.7l-5.6-15.7h-1l-5.6,15.7H305.4z"/>
				<path class="st5" d="M340.9,317.9c-7.1,0-11.2-4.2-11.2-10.5c0-6.3,4.1-10.5,11.2-10.5h44.7c7.1,0,11.2,4.2,11.2,10.5
					c0,6.3-4.1,10.5-11.2,10.5h-11.2v42.9c0,6.3-4.1,10.5-11.2,10.5c-7.1,0-11.2-4.2-11.2-10.5v-42.9H340.9z"/>
				<path class="st5" d="M466.8,340.9c0,17.8-13.2,31.4-34,31.4c-20.8,0-34-13.6-34-31.4v-14.7c0-17.8,13.2-31.4,34-31.4
					c20.8,0,34,13.6,34,31.4V340.9z M443.9,326.3c0-8.4-5.1-13.6-11.2-13.6c-6.1,0-11.2,5.2-11.2,13.6v14.7
					c0,8.4,5.1,13.6,11.2,13.6c6.1,0,11.2-5.2,11.2-13.6V326.3z"/>
			</g>
			<g>
				<g>
					<path class="st0" d="M32,403.3h0.3c0.2,0,0.3,0.1,0.3,0.3l1.6,9.3c0.3,2.1,1.7,3.3,3.7,3.3c2,0,3.3-1.2,3.3-3.2
						c0-1.4-0.3-3.1-0.3-3.2l-2.4-15.1c-0.4-2.5-2.1-4-4.7-4c-2.3,0-3.9,1.3-4.9,4.1l-3.1,8.4c-0.1,0.1-0.2,0.2-0.3,0.2H25
						c-0.1,0-0.3-0.1-0.3-0.2l-3.1-8.4c-1.1-2.8-2.6-4.1-4.9-4.1c-2.6,0-4.3,1.5-4.7,4l-2.4,15.1c0,0-0.3,1.8-0.3,3.2
						c0,2,1.3,3.2,3.3,3.2c2,0,3.3-1.2,3.7-3.3l1.6-9.3c0-0.2,0.2-0.3,0.3-0.3h0.3c0.1,0,0.3,0.1,0.3,0.2l2.6,6.8
						c0.8,2.3,2,3.4,3.9,3.4c1.8,0,3-1,3.8-3.4l2.6-6.8C31.7,403.4,31.8,403.3,32,403.3z"/>
				</g>
				<g>
					<path class="st0" d="M70.1,404.4h0.3c0.2,0,0.4,0.2,0.4,0.4v8.3c0,2,1.3,3.2,3.5,3.2c2.2,0,3.5-1.2,3.5-3.2v-18.7
						c0-2-1.3-3.2-3.5-3.2c-1.9,0-3.1,1.2-4.6,3.4l-5.9,8.3c-0.1,0.1-0.2,0.1-0.3,0.1h-0.3c-0.2,0-0.4-0.2-0.4-0.4v-8.3
						c0-2-1.3-3.2-3.5-3.2c-2.2,0-3.5,1.2-3.5,3.2V413c0,2,1.3,3.2,3.5,3.2c1.9,0,3.1-1.2,4.6-3.4l5.9-8.3
						C69.9,404.4,70,404.4,70.1,404.4z"/>
				</g>
				<g>
					<path class="st0" d="M98.6,415.9h13.1c0.2,0,0.4,0.2,0.4,0.4v1.8c0,2,1.3,3.2,3.5,3.2c2.2,0,3.5-1.2,3.5-3.2v-5.7
						c0-2-0.9-2.9-2.8-2.9h-0.3c-0.2,0-0.4-0.2-0.4-0.4v-14.4c0-2-1.3-3.2-3.5-3.2h-12c-2.2,0-3.5,1.2-3.5,3.2v8.6
						c0,3.3-2.1,5.9-2.2,6c-0.1,0.1-0.2,0.1-0.3,0.1c-1.9,0-2.8,0.9-2.8,2.8v5.8c0,2,1.3,3.2,3.5,3.2c2.2,0,3.5-1.2,3.5-3.2v-1.8
						C98.3,416,98.4,415.9,98.6,415.9z M108.2,409.4h-6.3c-0.2,0-0.4-0.2-0.4-0.4v-0.4c0-0.1,0-0.2,0.1-0.2c0,0,1.8-2.1,1.8-5.1v-5
						c0-0.2,0.2-0.4,0.4-0.4h4.4c0.2,0,0.4,0.2,0.4,0.4v10.8C108.6,409.2,108.4,409.4,108.2,409.4z"/>
				</g>
				<g>
					<path class="st0" d="M147.7,404.4h0.3c0.2,0,0.4,0.2,0.4,0.4v8.3c0,2,1.3,3.2,3.5,3.2s3.5-1.2,3.5-3.2v-18.7
						c0-2-1.3-3.2-3.5-3.2c-1.9,0-3.1,1.2-4.6,3.4l-5.9,8.3c-0.1,0.1-0.2,0.1-0.3,0.1h-0.3c-0.2,0-0.4-0.2-0.4-0.4v-8.3
						c0-2-1.3-3.2-3.5-3.2c-2.2,0-3.5,1.2-3.5,3.2V413c0,2,1.3,3.2,3.5,3.2c1.9,0,3.1-1.2,4.6-3.4l5.9-8.3
						C147.5,404.4,147.6,404.4,147.7,404.4z"/>
				</g>
				<g>
					<path class="st0" d="M185.8,404.4h0.3c0.2,0,0.4,0.2,0.4,0.4v8.3c0,2,1.3,3.2,3.5,3.2c2.2,0,3.5-1.2,3.5-3.2v-18.7
						c0-2-1.3-3.2-3.5-3.2c-1.9,0-3.1,1.2-4.6,3.4l-5.9,8.3c-0.1,0.1-0.2,0.1-0.3,0.1h-0.3c-0.2,0-0.4-0.2-0.4-0.4v-8.3
						c0-2-1.3-3.2-3.5-3.2c-2.2,0-3.5,1.2-3.5,3.2V413c0,2,1.3,3.2,3.5,3.2c1.9,0,3.1-1.2,4.6-3.4l5.9-8.3
						C185.6,404.4,185.7,404.4,185.8,404.4z"/>
				</g>
				<g>
					<path class="st0" d="M239.6,390.7c-5.3,0-8.6,3.5-8.6,6.8c0,3.3,2.4,4.7,2.4,4.7c0.1,0.1,0.2,0.2,0.2,0.3v0.4
						c0,0.2-0.1,0.3-0.2,0.3c0,0-5,1.8-5,6.5c0,3.4,3.3,6.8,8.7,6.8c6,0,8.1-2.7,8.1-2.7c0.1-0.1,0.2-0.1,0.3-0.1h0.3
						c0.1,0,0.2,0,0.2,0.1c1,1.1,2.3,2.4,4.3,2.4c1.7,0,3.1-1.4,3.1-3.2c0-1.8-1.5-3.1-2.5-3.8c-0.1-0.1-0.2-0.2-0.2-0.3v-0.4
						c0-0.1,0-0.2,0.1-0.3c0.3-0.3,1.1-1.4,1.1-2.1c0-2-1.2-3.2-3.1-3.2c-1.7,0-3,1.6-3,1.7c-0.1,0.1-0.1,0.1-0.2,0.1
						c-0.1,0-0.2,0-0.3-0.1l-1.2-1.1c-0.1-0.1-0.1-0.2-0.1-0.3v-0.4c0-0.2,0.1-0.3,0.2-0.3c0.2-0.1,3.8-1.4,3.8-5
						C248.1,394.3,244.9,390.7,239.6,390.7z M238.2,410.8c-1.7,0-2.4-0.9-2.4-1.8c0-1.7,1.7-2.3,1.8-2.3c0.1,0,0.2,0,0.3,0.1
						l2.6,2.3c0.1,0.1,0.2,0.3,0.1,0.5C240.6,409.7,239.8,410.8,238.2,410.8z M239.6,400.1c0,0-0.1,0-0.1,0c-0.1,0-1.8-0.8-1.8-2.1
						c0-1,0.9-1.8,1.9-1.8c1,0,1.9,0.8,1.9,1.8c0,1.3-1.7,2.1-1.8,2.1C239.7,400.1,239.6,400.1,239.6,400.1z"/>
				</g>
				<g>
					<path class="st0" d="M292,391.5c-2.2,0-3.5,1.2-3.5,3.2V413c0,2,1.3,3.2,3.5,3.2s3.5-1.2,3.5-3.2v-4.3c0-0.2,0.2-0.4,0.4-0.4
						h3.1c6.2,0,10.4-3.4,10.4-8.4c0-5-4.2-8.4-10.4-8.4H292z M298.9,402.6h-3.1c-0.2,0-0.4-0.2-0.4-0.4v-4.7c0-0.2,0.2-0.4,0.4-0.4
						h3.1c2.1,0,3.1,1.4,3.1,2.7C302.1,401.2,301,402.6,298.9,402.6z"/>
				</g>
				<g>
					<path class="st0" d="M334.4,390.7c-6.7,0-11.3,4.3-11.3,10.4v5c0,6.1,4.7,10.4,11.3,10.4c6.7,0,11.3-4.3,11.3-10.4v-5
						C345.8,395,341.1,390.7,334.4,390.7z M334.4,411.2c-2.4,0-4.2-2.1-4.2-5v-5c0-2.9,1.8-5,4.2-5c2.4,0,4.2,2.1,4.2,5v5
						C338.6,409.1,336.9,411.2,334.4,411.2z"/>
				</g>
				<g>
					<path class="st0" d="M366.1,391.5c-2.2,0-3.5,1.2-3.5,3.2v8.6c0,5.2-1.9,6.6-3.3,7.6c-0.9,0.7-1.6,1.2-1.6,2.4
						c0,2,1.2,3.2,3.1,3.2c4.3,0,8.7-4.6,8.7-13.3v-5c0-0.2,0.2-0.4,0.4-0.4h4.7c0.2,0,0.4,0.2,0.4,0.4V413c0,2,1.3,3.2,3.5,3.2
						c2.2,0,3.5-1.2,3.5-3.2v-18.3c0-2-1.3-3.2-3.5-3.2H366.1z"/>
				</g>
				<g>
					<path class="st0" d="M403.9,391.5c-2.2,0-3.5,1.2-3.5,3.2v8.6c0,5.2-1.9,6.6-3.3,7.6c-0.9,0.7-1.6,1.2-1.6,2.4
						c0,2,1.2,3.2,3.1,3.2c4.3,0,8.7-4.6,8.7-13.3v-5c0-0.2,0.2-0.4,0.4-0.4h4.7c0.2,0,0.4,0.2,0.4,0.4V413c0,2,1.3,3.2,3.5,3.2
						c2.2,0,3.5-1.2,3.5-3.2v-18.3c0-2-1.3-3.2-3.5-3.2H403.9z"/>
				</g>
				<g>
					<path class="st0" d="M462.9,391.1c-2.2,0-3.5,1.2-3.5,3.2V413c0,2,1.3,3.2,3.5,3.2s3.5-1.2,3.5-3.2v-18.7
						C466.4,392.3,465.1,391.1,462.9,391.1z M439.4,391.1c-2.2,0-3.5,1.2-3.5,3.2v18.3c0,2,1.3,3.2,3.5,3.2h6.6
						c6.2,0,10.4-3.4,10.4-8.4c0-5-4.2-8.4-10.4-8.4h-2.8c-0.2,0-0.3-0.2-0.3-0.4v-4.3C442.9,392.3,441.6,391.1,439.4,391.1z
						 M446,410.1h-2.8c-0.2,0-0.3-0.2-0.3-0.4v-4.7c0-0.2,0.2-0.4,0.3-0.4h2.8c2.1,0,3.1,1.4,3.1,2.7
						C449.1,408.8,448.1,410.1,446,410.1z"/>
				</g>
			</g>
		</g>
	</g>
</g>
</svg>
