<?xml version="1.0" encoding="utf-8"?>
<!-- Generator: Adobe Illustrator 21.1.0, SVG Export Plug-In . SVG Version: 6.00 Build 0)  -->
<svg version="1.1" id="Layer_1" xmlns="http://www.w3.org/2000/svg" xmlns:xlink="http://www.w3.org/1999/xlink" x="0px" y="0px"
	 viewBox="0 0 197.6 45" style="enable-background:new 0 0 197.6 45;" xml:space="preserve">
<style type="text/css">
	.st0{fill:#CC0000;}
</style>
<g>
	<path class="st0" d="M14.5,45L0,0h13.1l8.7,33.1h0.6L30.7,0H43L28.9,45H14.5z"/>
	<path class="st0" d="M50.6,45V0H62v45H50.6z"/>
	<path class="st0" d="M84.1,45H72.7V0h19.8c5.2,0,9.4,1.3,12.3,3.9c2.9,2.6,4.4,6.3,4.4,10.9c0,2.8-0.7,5.3-2,7.6
		c-1.4,2.3-3.2,4-5.7,5.1l9,17.5H97.7L90,29.3h-6V45H84.1z M84.1,21.2h6.8c2.1,0,3.7-0.5,4.9-1.6s1.8-2.6,1.8-4.5s-0.6-3.4-1.8-4.5
		c-1.3-1.3-2.9-1.8-4.9-1.8h-6.8V21.2z"/>
	<path class="st0" d="M144.2,35.1h-14.6l-2.9,9.9h-11.3l15-45h14l15.1,45H147L144.2,35.1z M131.7,26.8h10.4l-4.8-16.7h-0.6
		L131.7,26.8z"/>
	<path class="st0" d="M197.6,45H167V0h11.4v35.5h19.2L197.6,45L197.6,45z"/>
</g>
</svg>
