<?xml version="1.0" encoding="utf-8"?>
<!-- Generator: Adobe Illustrator 21.1.0, SVG Export Plug-In . SVG Version: 6.00 Build 0)  -->
<svg version="1.1" id="Layer_1" xmlns="http://www.w3.org/2000/svg" xmlns:xlink="http://www.w3.org/1999/xlink" x="0px" y="0px"
	 viewBox="0 0 133.5 17.6" style="enable-background:new 0 0 133.5 17.6;" xml:space="preserve">
<style type="text/css">
	.st0{fill:#FFFFFF;}
</style>
<g>
	<path class="st0" d="M22.7,17.6L17,0h5.1l3.4,13h0.2L29,0h4.8l-5.5,17.6H22.7z"/>
	<path class="st0" d="M36.9,17.6V0h4.5v17.6H36.9z"/>
	<path class="st0" d="M50,17.6h-4.5V0h7.8c2.1,0,3.7,0.5,4.8,1.5s1.7,2.5,1.7,4.3c0,1.1-0.3,2.1-0.8,3c-0.6,0.9-1.3,1.6-2.2,2
		l3.5,6.8h-5l-3-6.2H50V17.6z M50,8.3h2.7c0.8,0,1.5-0.2,1.9-0.6c0.5-0.4,0.7-1,0.7-1.8s-0.2-1.3-0.7-1.8s-1.1-0.7-1.9-0.7H50V8.3z"
		/>
	<path class="st0" d="M73.6,13.8h-5.7l-1.1,3.9h-4.4L68.2,0h5.5l5.9,17.6h-4.9L73.6,13.8z M68.7,10.5h4.1L70.9,4h-0.2L68.7,10.5z"/>
	<path class="st0" d="M94.5,17.6h-12V0H87v13.9h7.5V17.6z"/>
</g>
<g>
	<path class="st0" d="M12.9,6.1h-2.2l-1,5.2h2.6v2h-3l-0.8,4.3H6.3l0.8-4.3H4l-0.8,4.3H0.9l0.8-4.3H0v-2h2.2l1-5.2H0.5v-2h3.1L4.4,0
		h2.2L5.8,4.1H9L9.8,0h2.2l-0.8,4.1h1.8V6.1z M7.5,11.4l1-5.2H5.4l-1,5.2H7.5z"/>
</g>
</svg>
